<svg width="24" height="24" viewBox="0 0 24 24" fill="none" xmlns="http://www.w3.org/2000/svg">
<path d="M12.0005 0L12.6285 0.0164461L13.2549 0.0657396L13.8778 0.147746L14.4955 0.262239L15.1064 0.408907L15.7088 0.587346L16.3011 0.797068L16.8815 1.0375L17.4486 1.30797L18.0007 1.60776L18.5364 1.93603L19.0542 2.29189L19.5526 2.67436L20.0304 3.08239L20.4861 3.51486L20.9186 3.97059L21.3266 4.44834L21.7091 4.94678L22.0649 5.46455L22.3932 6.00024L22.693 6.55238L22.9635 7.11945L23.2039 7.6999L23.4136 8.29213L23.5921 8.89453L23.7387 9.50545L23.8532 10.1232L23.9352 10.7461L23.9845 11.3724L24.001 12.0005L23.9845 12.6285L23.9352 13.2549L23.8532 13.8778L23.7387 14.4955L23.5921 15.1064L23.4136 15.7088L23.2039 16.3011L22.9635 16.8815L22.693 17.4486L22.3932 18.0007L22.0649 18.5364L21.7091 19.0542L21.3266 19.5526L20.9186 20.0304L20.4861 20.4861L20.0304 20.9186L19.5526 21.3266L19.0542 21.7091L18.5364 22.0649L18.0007 22.3932L17.4486 22.693L16.8815 22.9635L16.3011 23.2039L15.7088 23.4136L15.1064 23.5921L14.4955 23.7387L13.8778 23.8532L13.2549 23.9352L12.6285 23.9845L12.0005 24.001L11.3724 23.9845L10.7461 23.9352L10.1232 23.8532L9.50545 23.7387L8.89453 23.5921L8.29213 23.4136L7.6999 23.2039L7.11945 22.9635L6.55238 22.693L6.00024 22.3932L5.46455 22.0649L4.94678 21.7091L4.44834 21.3266L3.97059 20.9186L3.51486 20.4861L3.08239 20.0304L2.67436 19.5526L2.29189 19.0542L1.93603 18.5364L1.60776 18.0007L1.30797 17.4486L1.0375 16.8815L0.797068 16.3011L0.587346 15.7088L0.408907 15.1064L0.262239 14.4955L0.147746 13.8778L0.0657396 13.2549L0.0164461 12.6285L0 12.0005L0.0164461 11.3724L0.0657396 10.7461L0.147746 10.1232L0.262239 9.50545L0.408907 8.89453L0.587346 8.29213L0.797068 7.6999L1.0375 7.11945L1.30797 6.55238L1.60776 6.00024L1.93603 5.46455L2.29189 4.94678L2.67436 4.44834L3.08239 3.97059L3.51486 3.51486L3.97059 3.08239L4.44834 2.67436L4.94678 2.29189L5.46455 1.93603L6.00024 1.60776L6.55238 1.30797L7.11945 1.0375L7.6999 0.797068L8.29213 0.587346L8.89453 0.408907L9.50545 0.262239L10.1232 0.147746L10.7461 0.0657396L11.3724 0.0164461L12.0005 0Z" fill="#EFB921"/>
<path d="M11.3154 16.5234L5.82101 12.8327L7.29391 10.8531L10.74 13.1678L15.2113 7.1585L17.2596 8.53432L11.3154 16.5234Z" fill="#12110C"/>
</svg>
