<svg width="87" height="42" viewBox="0 0 87 42" fill="none" xmlns="http://www.w3.org/2000/svg">
<g clip-path="url(#clip0_1231_5537)">
<path d="M30.9054 33.0623V15.5398C30.9054 15.2409 30.5542 14.5684 30.36 14.3293C29 12.663 26.2726 13.5372 26.1007 15.6818C25.9737 18.9023 26.2801 22.2649 26.1007 25.478C25.8019 30.985 20.1677 34.5867 15.0417 32.4048C12.1574 31.1793 10.3716 28.3996 10.2221 25.2912C10.0727 22.1827 10.3417 18.7902 10.2221 15.5921C9.97552 13.5297 7.34527 12.7003 5.99279 14.3143C5.75367 14.5983 5.41742 15.2783 5.41742 15.6444V33.0698H0V15.1737C0.478227 10.369 5.02886 7.08862 9.7663 8.26178C13.0915 9.08373 15.505 12.0876 15.6918 15.5024C15.8712 18.723 15.5573 22.1079 15.6918 25.3509C15.9982 28.3548 20.4442 28.31 20.6385 25.3061C20.8328 22.3022 20.4741 18.8127 20.6385 15.6519C20.7805 12.9095 22.2301 10.3914 24.6287 9.0389C29.8593 6.10228 36.1734 9.80107 36.3752 15.6967V32.9129L36.3004 33.0773H30.9054V33.0623Z" fill="white"/>
<path d="M41.9049 11.8786C48.0023 5.43 58.7399 7.31302 62.3864 15.3457C66.3094 23.9987 59.4349 33.7799 49.9974 33.0177C39.5287 32.1734 34.6567 19.5526 41.9123 11.8786H41.9049ZM50.4307 13.4403C45.5962 13.784 42.54 18.8652 44.4604 23.3336C46.5302 28.1383 53.0012 29.1172 56.3862 25.0971C60.4436 20.2775 56.6851 12.9994 50.4382 13.4403H50.4307Z" fill="white"/>
<path d="M67.4601 8.00781L74.2375 23.9836L80.9626 8.00781H87.0002L76.6735 31.5605C75.59 33.5257 72.8327 33.5631 71.7418 31.5605L61.415 8.00781H67.4527H67.4601Z" fill="white"/>
<path d="M56.2663 0.452575C58.523 0.684217 59.5915 3.44897 57.9849 5.09287C57.6263 5.45902 56.7744 5.91483 56.2663 5.91483H54.458L54.3833 5.8401V0.452575C54.9886 0.497409 55.6685 0.392797 56.2588 0.452575H56.2663Z" fill="white"/>
<path d="M47.5387 0.453125V5.92285H45.708C43.7801 5.92285 42.5995 3.50182 43.5335 1.85045C43.8997 1.20036 44.8935 0.453125 45.6557 0.453125H47.5312H47.5387Z" fill="white"/>
</g>
<defs>
<clipPath id="clip0_1231_5537">
<rect width="87" height="42" fill="white"/>
</clipPath>
</defs>
</svg>
