<svg width="196" height="78" viewBox="0 0 196 78" fill="none" xmlns="http://www.w3.org/2000/svg">
<path d="M56.8707 58.2663C54.6955 58.2663 52.9863 56.5571 52.9863 54.3819V23.0734C52.9863 20.9759 54.6955 19.2667 56.8707 19.2667C58.9683 19.2667 60.6775 20.9759 60.6775 23.0734V54.3819C60.6775 56.5571 58.9683 58.2663 56.8707 58.2663ZM56.8707 11.4979C55.8608 11.4979 54.8508 11.1094 54.1517 10.4102C53.4525 9.71105 52.9863 8.7011 52.9863 7.69115C52.9863 6.6812 53.4525 5.67125 54.1517 4.97205C54.8508 4.27286 55.8608 3.80673 56.8707 3.80673C57.8807 3.80673 58.8906 4.27286 59.5898 4.97205C60.289 5.67125 60.6775 6.6812 60.6775 7.69115C60.6775 8.7011 60.289 9.71105 59.5898 10.4102C58.8906 11.1094 57.8807 11.4979 56.8707 11.4979Z" fill="white"/>
<path d="M84.6158 19.189C95.3368 19.189 104.116 27.8901 104.116 38.6888V54.3042C104.116 56.4795 102.406 58.1886 100.231 58.1886C98.1336 58.1886 96.4244 56.4795 96.4244 54.3042V38.6888C96.4244 32.163 91.1416 26.8802 84.6158 26.8802C78.09 26.8802 72.8072 32.163 72.8072 38.6888V54.3042C72.8072 56.4795 71.098 58.1886 68.9228 58.1886C66.8252 58.1886 65.116 56.4795 65.116 54.3042V38.6888C65.116 27.8901 73.8948 19.189 84.6158 19.189Z" fill="white"/>
<path d="M147.664 38.6888C147.664 38.6888 147.664 38.6888 147.664 58.1886C147.664 68.9096 138.885 77.6884 128.164 77.6884C120.628 77.6884 113.947 73.4932 110.606 66.7343C109.674 64.7921 110.451 62.5392 112.393 61.6069C114.258 60.6746 116.588 61.4515 117.52 63.316C119.54 67.4335 123.58 69.9972 128.164 69.9972C134.612 69.9972 139.817 64.7921 139.972 58.4217C139.972 58.344 139.972 58.2663 139.972 54.1488C136.632 56.6348 132.592 58.1886 128.164 58.1886C117.365 58.1886 108.664 49.4098 108.664 38.6888C108.664 27.8901 117.365 19.189 128.164 19.189C138.885 19.189 147.664 27.8901 147.664 38.6888ZM128.164 50.4974C134.612 50.4974 139.972 45.1369 139.972 38.6888C139.972 32.163 134.612 26.8802 128.164 26.8802C121.638 26.8802 116.355 32.163 116.355 38.6888C116.355 45.1369 121.638 50.4974 128.164 50.4974Z" fill="white"/>
<path d="M155.954 58.2663C153.778 58.2663 152.069 56.5571 152.069 54.3819V3.80673C152.069 1.70914 153.778 0 155.954 0C158.051 0 159.761 1.70914 159.761 3.80673V54.3819C159.761 56.5571 158.051 58.2663 155.954 58.2663Z" fill="white"/>
<path d="M191.623 19.1923C193.798 19.1923 195.507 20.9014 195.507 22.999V61.6069C195.507 70.3857 188.282 77.6107 179.426 77.6107C173.289 77.6107 167.773 74.1147 165.054 68.5988C164.121 66.7343 164.898 64.4037 166.84 63.4714C168.705 62.5391 171.036 63.3937 171.89 65.2582C173.366 68.1327 176.241 69.9195 179.426 69.9195C184.087 69.9195 187.816 66.1905 187.816 61.6069V51.8786C185.486 53.277 182.767 54.0539 179.814 54.0539C171.269 54.0539 164.277 47.1396 164.199 38.5939C164.199 38.5162 164.199 38.5162 164.199 38.5162V22.999C164.199 20.9014 165.908 19.1923 168.006 19.1923C170.103 19.1923 171.813 20.9014 171.813 22.999V38.4385C171.813 42.8667 175.464 46.4404 179.814 46.4404C184.243 46.4404 187.816 42.8667 187.816 38.4385V22.999C187.816 20.9014 189.525 19.1923 191.623 19.1923Z" fill="white"/>
<path d="M29.8607 40.5566C30.287 40.9828 30.9026 41.2196 31.5182 41.2196C32.1339 41.2196 32.7495 40.9828 33.1757 40.5566C33.602 40.1304 33.8387 39.5147 33.8387 38.8991C33.8387 38.2835 33.602 37.6678 33.1757 37.2416C32.7495 36.8154 32.1339 36.5312 31.5182 36.5312C30.9026 36.5312 30.287 36.8154 29.8607 37.2416C29.4345 37.6678 29.1504 38.2835 29.1504 38.8991C29.1504 39.5147 29.4345 40.1304 29.8607 40.5566Z" fill="white"/>
<path d="M22.6215 40.5566C23.0477 40.9828 23.6633 41.2196 24.279 41.2196C24.8946 41.2196 25.5103 40.9828 25.9365 40.5566C26.3627 40.1304 26.5995 39.5147 26.5995 38.8991C26.5995 38.2835 26.3627 37.6678 25.9365 37.2416C25.5103 36.8154 24.8946 36.5312 24.279 36.5312C23.6633 36.5312 23.0477 36.8154 22.6215 37.2416C22.1953 37.6678 21.9111 38.2835 21.9111 38.8991C21.9111 39.5147 22.1953 40.1304 22.6215 40.5566Z" fill="white"/>
<path d="M15.3813 40.5566C15.8075 40.9828 16.4231 41.2196 17.0388 41.2196C17.6544 41.2196 18.27 40.9828 18.6962 40.5566C19.1225 40.1304 19.3592 39.5147 19.3592 38.8991C19.3592 38.2835 19.1225 37.6678 18.6962 37.2416C18.27 36.8154 17.6544 36.5312 17.0388 36.5312C16.4231 36.5312 15.8075 36.8154 15.3813 37.2416C14.955 37.6678 14.6709 38.2835 14.6709 38.8991C14.6709 39.5147 14.955 40.1304 15.3813 40.5566Z" fill="white"/>
<path d="M30.86 46.6066C36.7688 46.6066 39.7232 43.7596 39.7232 38.0657C39.7232 35.0038 38.9712 32.8552 37.4671 31.6197C35.9631 30.3305 33.7607 29.6859 30.86 29.6859H19.0623C16.6371 29.6859 14.671 27.7199 14.671 25.2946C14.671 22.8694 16.6371 20.9033 19.0623 20.9033H30.86C33.4921 20.9033 35.8825 21.3062 38.0311 22.1119C40.2335 22.864 42.0867 23.992 43.5908 25.4961C45.1485 26.9464 46.3303 28.7459 47.136 30.8946C47.9955 32.9895 48.4252 35.3799 48.4252 38.0657C48.4252 40.7515 47.9955 43.1687 47.136 45.3174C46.3303 47.4123 45.1485 49.2387 43.5908 50.7964C42.0867 52.3005 40.2335 53.4554 38.0311 54.2611C35.8825 55.0669 33.4921 55.4698 30.86 55.4698H20.2242C18.2904 55.4698 16.3566 55.6309 14.4228 55.9532C13.0576 56.1807 11.7192 56.5689 10.4076 57.1177C9.32268 57.5716 8.46567 58.4226 7.86682 59.4348L0 72.7303V37.2666C0 34.8413 1.96606 32.8753 4.39131 32.8753C6.81656 32.8753 8.78261 34.8413 8.78261 37.2666V49.0238C10.609 47.9495 12.4622 47.278 14.3422 47.0094C16.276 46.7409 18.2367 46.6066 20.2242 46.6066H30.86Z" fill="white"/>
</svg>
