<svg width="207" height="83" viewBox="0 0 207 83" fill="none" xmlns="http://www.w3.org/2000/svg">
<path d="M60.1253 61.6007C57.8255 61.6007 56.0186 59.7938 56.0186 57.494V24.3939C56.0186 22.1763 57.8255 20.3693 60.1253 20.3693C62.3429 20.3693 64.1498 22.1763 64.1498 24.3939V57.494C64.1498 59.7938 62.3429 61.6007 60.1253 61.6007ZM60.1253 12.1559C59.0575 12.1559 57.9898 11.7452 57.2506 11.006C56.5114 10.2668 56.0186 9.19904 56.0186 8.13129C56.0186 7.06355 56.5114 5.9958 57.2506 5.25659C57.9898 4.51739 59.0575 4.02458 60.1253 4.02458C61.193 4.02458 62.2608 4.51739 63 5.25659C63.7392 5.9958 64.1498 7.06355 64.1498 8.13129C64.1498 9.19904 63.7392 10.2668 63 11.006C62.2608 11.7452 61.193 12.1559 60.1253 12.1559Z" fill="white"/>
<path d="M89.4581 20.2872C100.793 20.2872 110.074 29.4862 110.074 40.9029V57.4119C110.074 59.7116 108.267 61.5186 105.967 61.5186C103.749 61.5186 101.943 59.7116 101.943 57.4119V40.9029C101.943 34.0036 96.3574 28.4185 89.4581 28.4185C82.5588 28.4185 76.9737 34.0036 76.9737 40.9029V57.4119C76.9737 59.7116 75.1667 61.5186 72.867 61.5186C70.6494 61.5186 68.8424 59.7116 68.8424 57.4119V40.9029C68.8424 29.4862 78.1236 20.2872 89.4581 20.2872Z" fill="white"/>
<path d="M156.114 40.9029C156.114 40.9029 156.114 40.9029 156.114 61.5186C156.114 72.8531 146.833 82.1343 135.498 82.1343C127.531 82.1343 120.468 77.699 116.936 70.5533C115.95 68.5 116.772 66.1181 118.825 65.1325C120.796 64.1469 123.26 64.9682 124.246 66.9394C126.381 71.2926 130.652 74.003 135.498 74.003C142.315 74.003 147.818 68.5 147.983 61.765C147.983 61.6828 147.983 61.6007 147.983 57.2476C144.451 59.8759 140.18 61.5186 135.498 61.5186C124.082 61.5186 114.883 52.2374 114.883 40.9029C114.883 29.4862 124.082 20.2872 135.498 20.2872C146.833 20.2872 156.114 29.4862 156.114 40.9029ZM135.498 53.3873C142.315 53.3873 147.983 47.72 147.983 40.9029C147.983 34.0036 142.315 28.4185 135.498 28.4185C128.599 28.4185 123.014 34.0036 123.014 40.9029C123.014 47.72 128.599 53.3873 135.498 53.3873Z" fill="white"/>
<path d="M164.879 61.6007C162.579 61.6007 160.772 59.7938 160.772 57.494V4.02458C160.772 1.80695 162.579 0 164.879 0C167.096 0 168.903 1.80695 168.903 4.02458V57.494C168.903 59.7938 167.096 61.6007 164.879 61.6007Z" fill="white"/>
<path d="M202.589 20.2906C204.889 20.2906 206.696 22.0975 206.696 24.3152V65.1325C206.696 74.4137 199.057 82.0521 189.694 82.0521C183.205 82.0521 177.374 78.3561 174.499 72.5246C173.514 70.5533 174.335 68.0893 176.388 67.1037C178.359 66.1181 180.824 67.0216 181.727 68.9928C183.288 72.0318 186.327 73.9209 189.694 73.9209C194.622 73.9209 198.565 69.9784 198.565 65.1325V54.8475C196.1 56.3259 193.226 57.1472 190.105 57.1472C181.07 57.1472 173.678 49.8373 173.596 40.8025C173.596 40.7204 173.596 40.7204 173.596 40.7204V24.3152C173.596 22.0975 175.403 20.2906 177.62 20.2906C179.838 20.2906 181.645 22.0975 181.645 24.3152V40.6382C181.645 45.3199 185.505 49.0981 190.105 49.0981C194.786 49.0981 198.565 45.3199 198.565 40.6382V24.3152C198.565 22.0975 200.371 20.2906 202.589 20.2906Z" fill="white"/>
<path d="M31.5703 42.8778C32.0209 43.3284 32.6718 43.5787 33.3227 43.5787C33.9736 43.5787 34.6244 43.3284 35.075 42.8778C35.5256 42.4272 35.776 41.7763 35.776 41.1254C35.776 40.4746 35.5256 39.8237 35.075 39.3731C34.6244 38.9225 33.9736 38.6221 33.3227 38.6221C32.6718 38.6221 32.0209 38.9225 31.5703 39.3731C31.1197 39.8237 30.8193 40.4746 30.8193 41.1254C30.8193 41.7763 31.1197 42.4272 31.5703 42.8778Z" fill="white"/>
<path d="M23.916 42.8778C24.3667 43.3284 25.0175 43.5787 25.6684 43.5787C26.3193 43.5787 26.9701 43.3284 27.4207 42.8778C27.8714 42.4272 28.1217 41.7763 28.1217 41.1254C28.1217 40.4746 27.8714 39.8237 27.4207 39.3731C26.9701 38.9225 26.3193 38.6221 25.6684 38.6221C25.0175 38.6221 24.3667 38.9225 23.916 39.3731C23.4654 39.8237 23.165 40.4746 23.165 41.1254C23.165 41.7763 23.4654 42.4272 23.916 42.8778Z" fill="white"/>
<path d="M16.2617 42.8778C16.7124 43.3284 17.3632 43.5787 18.0141 43.5787C18.665 43.5787 19.3158 43.3284 19.7664 42.8778C20.2171 42.4272 20.4674 41.7763 20.4674 41.1254C20.4674 40.4746 20.2171 39.8237 19.7664 39.3731C19.3158 38.9225 18.665 38.6221 18.0141 38.6221C17.3632 38.6221 16.7124 38.9225 16.2617 39.3731C15.8111 39.8237 15.5107 40.4746 15.5107 41.1254C15.5107 41.7763 15.8111 42.4272 16.2617 42.8778Z" fill="white"/>
<path d="M32.626 49.2738C38.873 49.2738 41.9964 46.2639 41.9964 40.2441C41.9964 37.0071 41.2014 34.7355 39.6113 33.4293C38.0211 32.0663 35.6927 31.3848 32.626 31.3848H20.1532C17.5892 31.3848 15.5106 29.3063 15.5106 26.7422C15.5106 24.1782 17.5892 22.0996 20.1532 22.0996H32.626C35.4088 22.0996 37.9359 22.5255 40.2076 23.3774C42.536 24.1725 44.4952 25.3651 46.0853 26.9552C47.7323 28.4885 48.9817 30.391 49.8335 32.6626C50.7422 34.8774 51.1965 37.4046 51.1965 40.2441C51.1965 43.0836 50.7422 45.6392 49.8335 47.9108C48.9817 50.1256 47.7323 52.0565 46.0853 53.7034C44.4952 55.2936 42.536 56.5146 40.2076 57.3664C37.9359 58.2183 35.4088 58.6442 32.626 58.6442H21.3816C19.3371 58.6442 17.2927 58.8146 15.2482 59.1553C14.0564 59.3539 12.8839 59.6684 11.7307 60.0986C10.0864 60.712 8.81225 61.9991 7.91857 63.5095L0 76.8925V39.3993C0 36.8353 2.07857 34.7567 4.64261 34.7567C7.20665 34.7567 9.28522 36.8353 9.28522 39.3993V51.8294C11.2161 50.6935 13.1754 49.9837 15.163 49.6997C17.2075 49.4158 19.2803 49.2738 21.3816 49.2738H32.626Z" fill="url(#paint0_linear_1109_1915)"/>
<defs>
<linearGradient id="paint0_linear_1109_1915" x1="2.78242" y1="39.4631" x2="20.9021" y2="77.5338" gradientUnits="userSpaceOnUse">
<stop stop-color="#E8282D"/>
<stop offset="1" stop-color="#FFA500"/>
</linearGradient>
</defs>
</svg>
