<svg width="196" height="78" viewBox="0 0 196 78" fill="none" xmlns="http://www.w3.org/2000/svg">
<path d="M56.8688 58.2663C54.6935 58.2663 52.9844 56.5571 52.9844 54.3819V23.0734C52.9844 20.9759 54.6935 19.2667 56.8688 19.2667C58.9664 19.2667 60.6755 20.9759 60.6755 23.0734V54.3819C60.6755 56.5571 58.9664 58.2663 56.8688 58.2663ZM56.8688 11.4979C55.8588 11.4979 54.8489 11.1094 54.1497 10.4102C53.4505 9.71105 52.9844 8.7011 52.9844 7.69115C52.9844 6.6812 53.4505 5.67125 54.1497 4.97205C54.8489 4.27286 55.8588 3.80673 56.8688 3.80673C57.8787 3.80673 58.8887 4.27286 59.5879 4.97205C60.2871 5.67125 60.6755 6.6812 60.6755 7.69115C60.6755 8.7011 60.2871 9.71105 59.5879 10.4102C58.8887 11.1094 57.8787 11.4979 56.8688 11.4979Z" fill="#09042C"/>
<path d="M84.6139 19.189C95.3349 19.189 104.114 27.8901 104.114 38.6888V54.3042C104.114 56.4795 102.405 58.1886 100.229 58.1886C98.1316 58.1886 96.4225 56.4795 96.4225 54.3042V38.6888C96.4225 32.163 91.1397 26.8802 84.6139 26.8802C78.088 26.8802 72.8052 32.163 72.8052 38.6888V54.3042C72.8052 56.4795 71.0961 58.1886 68.9208 58.1886C66.8232 58.1886 65.1141 56.4795 65.1141 54.3042V38.6888C65.1141 27.8901 73.8929 19.189 84.6139 19.189Z" fill="#09042C"/>
<path d="M147.662 38.6888C147.662 38.6888 147.662 38.6888 147.662 58.1886C147.662 68.9096 138.883 77.6884 128.162 77.6884C120.626 77.6884 113.945 73.4932 110.604 66.7343C109.672 64.7921 110.449 62.5391 112.391 61.6069C114.256 60.6746 116.586 61.4515 117.519 63.316C119.538 67.4335 123.578 69.9972 128.162 69.9972C134.61 69.9972 139.815 64.7921 139.97 58.4217C139.97 58.344 139.97 58.2663 139.97 54.1488C136.63 56.6348 132.59 58.1886 128.162 58.1886C117.363 58.1886 108.662 49.4098 108.662 38.6888C108.662 27.8901 117.363 19.189 128.162 19.189C138.883 19.189 147.662 27.8901 147.662 38.6888ZM128.162 50.4974C134.61 50.4974 139.97 45.1369 139.97 38.6888C139.97 32.163 134.61 26.8802 128.162 26.8802C121.636 26.8802 116.353 32.163 116.353 38.6888C116.353 45.1369 121.636 50.4974 128.162 50.4974Z" fill="#09042C"/>
<path d="M155.952 58.2663C153.777 58.2663 152.067 56.5571 152.067 54.3819V3.80673C152.067 1.70914 153.777 0 155.952 0C158.049 0 159.759 1.70914 159.759 3.80673V54.3819C159.759 56.5571 158.049 58.2663 155.952 58.2663Z" fill="#09042C"/>
<path d="M191.621 19.1923C193.796 19.1923 195.506 20.9014 195.506 22.999V61.6069C195.506 70.3857 188.28 77.6107 179.424 77.6107C173.287 77.6107 167.771 74.1147 165.052 68.5988C164.119 66.7343 164.896 64.4037 166.839 63.4714C168.703 62.5391 171.034 63.3937 171.888 65.2582C173.364 68.1327 176.239 69.9195 179.424 69.9195C184.085 69.9195 187.814 66.1905 187.814 61.6069V51.8786C185.484 53.277 182.765 54.0539 179.812 54.0539C171.267 54.0539 164.275 47.1396 164.197 38.5939C164.197 38.5162 164.197 38.5162 164.197 38.5162V22.999C164.197 20.9014 165.906 19.1923 168.004 19.1923C170.101 19.1923 171.811 20.9014 171.811 22.999V38.4385C171.811 42.8667 175.462 46.4404 179.812 46.4404C184.241 46.4404 187.814 42.8667 187.814 38.4385V22.999C187.814 20.9014 189.524 19.1923 191.621 19.1923Z" fill="#09042C"/>
<path d="M29.8627 40.5566C30.2889 40.9828 30.9046 41.2196 31.5202 41.2196C32.1358 41.2196 32.7515 40.9828 33.1777 40.5566C33.6039 40.1304 33.8407 39.5147 33.8407 38.8991C33.8407 38.2835 33.6039 37.6678 33.1777 37.2416C32.7515 36.8154 32.1358 36.5312 31.5202 36.5312C30.9046 36.5312 30.2889 36.8154 29.8627 37.2416C29.4365 37.6678 29.1523 38.2835 29.1523 38.8991C29.1523 39.5147 29.4365 40.1304 29.8627 40.5566Z" fill="#09042C"/>
<path d="M22.6205 40.5566C23.0467 40.9828 23.6624 41.2196 24.278 41.2196C24.8937 41.2196 25.5093 40.9828 25.9355 40.5566C26.3617 40.1304 26.5985 39.5147 26.5985 38.8991C26.5985 38.2835 26.3617 37.6678 25.9355 37.2416C25.5093 36.8154 24.8937 36.5312 24.278 36.5312C23.6624 36.5312 23.0467 36.8154 22.6205 37.2416C22.1943 37.6678 21.9102 38.2835 21.9102 38.8991C21.9102 39.5147 22.1943 40.1304 22.6205 40.5566Z" fill="#09042C"/>
<path d="M15.3822 40.5566C15.8084 40.9828 16.4241 41.2196 17.0397 41.2196C17.6554 41.2196 18.271 40.9828 18.6972 40.5566C19.1234 40.1304 19.3602 39.5147 19.3602 38.8991C19.3602 38.2835 19.1234 37.6678 18.6972 37.2416C18.271 36.8154 17.6554 36.5312 17.0397 36.5312C16.4241 36.5312 15.8084 36.8154 15.3822 37.2416C14.956 37.6678 14.6719 38.2835 14.6719 38.8991C14.6719 39.5147 14.956 40.1304 15.3822 40.5566Z" fill="#09042C"/>
<path d="M30.86 46.6075C36.7688 46.6075 39.7232 43.7606 39.7232 38.0667C39.7232 35.0048 38.9712 32.8562 37.4671 31.6207C35.9631 30.3315 33.7607 29.6869 30.86 29.6869H19.0623C16.6371 29.6869 14.671 27.7209 14.671 25.2956C14.671 22.8704 16.6371 20.9043 19.0623 20.9043H30.86C33.4921 20.9043 35.8825 21.3072 38.0311 22.1129C40.2335 22.8649 42.0867 23.993 43.5908 25.497C45.1485 26.9474 46.3303 28.7469 47.136 30.8955C47.9955 32.9905 48.4252 35.3808 48.4252 38.0667C48.4252 40.7525 47.9955 43.1697 47.136 45.3184C46.3303 47.4133 45.1485 49.2396 43.5908 50.7974C42.0867 52.3015 40.2335 53.4564 38.0311 54.2621C35.8825 55.0679 33.4921 55.4707 30.86 55.4707H20.2242C18.2904 55.4707 16.3566 55.6319 14.4228 55.9542C13.0576 56.1817 11.7192 56.5699 10.4076 57.1187C9.32268 57.5726 8.46567 58.4236 7.86682 59.4357L0 72.7313V37.2676C0 34.8423 1.96606 32.8763 4.39131 32.8763C6.81656 32.8763 8.78261 34.8423 8.78261 37.2676V49.0248C10.609 47.9505 12.4622 47.279 14.3422 47.0104C16.276 46.7418 18.2367 46.6075 20.2242 46.6075H30.86Z" fill="url(#paint0_linear_1622_1392)"/>
<defs>
<linearGradient id="paint0_linear_1622_1392" x1="2.63181" y1="37.3279" x2="19.7707" y2="73.3378" gradientUnits="userSpaceOnUse">
<stop stop-color="#E8282D"/>
<stop offset="1" stop-color="#FFA500"/>
</linearGradient>
</defs>
</svg>
